<svg width="297" height="581" xmlns="http://www.w3.org/2000/svg"><title>Slice 1</title><title>background</title><path fill="none" d="M-1-1h582v402h-582z"/><title>Layer 1</title><path stroke-width="1.5" stroke="#000" fill="#fff" d="M235.5 13.5h33v30h-33z"/><path stroke-width="1.5" stroke="#000" fill="#fff" d="M100.5 4.5h94v29h-94z"/><path d="M254.906 6.981c42.278 12.393 42.264 34.925 42.264 34.931v490.358s-.093 27.05-42.264 41.455c-22.889 7.818-80.114 7.271-106.236 7.271s-85.379.547-108.268-7.271c-42.172-14.405-40.232-41.455-40.232-41.455v-490.358s-2.051-22.536 40.232-34.931c22.836-6.694 82.23-6.985 108.268-6.985 26.038 0 83.4.291 106.236 6.985zm-.219 28.019c3.59 0 6.5-2.91 6.5-6.5s-2.91-6.5-6.5-6.5-6.5 2.91-6.5 6.5 2.91 6.5 6.5 6.5zm-105.977-26c-16.79 0-31.882.933-31.882.933-1.097.062-1.462.833-.814 1.723l3.449 4.735c.647.889 2.075 1.61 3.165 1.61h52.014c1.101 0 2.52-.734 3.163-1.629l3.373-4.696c.646-.9.268-1.682-.828-1.744 0 0-14.85-.931-31.639-.931l-.001-.001zm-135.523 59v452.996h270v-452.996h-270zm0 0"/></svg>