<svg width="221" height="464" xmlns="http://www.w3.org/2000/svg"><title>apple-iphone-5s</title><title>background</title><path fill="none" d="M-1-1h582v402h-582z"/><title>Layer 1</title><path stroke-width="null" stroke="#000" fill="#fff" d="M65 13h88v42h-88z"/><path stroke-width="null" stroke="#000" fill="#fff" d="M72 406h79v54h-79z"/><path d="M3 164h-3v-17h3v-21h-3v-17h3v-22h-3v-21h3v-31.994c0-17.673 14.323-32.006 31.991-32.006h114.009v-2h36v2h4.009c17.666 0 31.991 14.33 31.991 32.006v397.988c0 17.673-14.323 32.006-31.991 32.006h-154.018c-17.666 0-31.991-14.33-31.991-32.006v-267.994zm91.009-124c-.557 0-1.009.443-1.009 1.009v1.981c0 .557.451 1.009 1 1.009h34.992c.557 0 1.008-.443 1.008-1.009v-1.981c0-.557-.441-1.009-1.009-1.009h-34.982zm17.491-11c2.485 0 4.5-2.015 4.5-4.5s-2.015-4.5-4.5-4.5-4.5 2.015-4.5 4.5 2.015 4.5 4.5 4.5zm-93.506 37c-1.102 0-1.994.902-1.994 2.01v330.981c0 1.11.899 2.01 1.994 2.01h188.011c1.102 0 1.994-.902 1.994-2.01v-330.981c0-1.11-.899-2.01-1.994-2.01h-188.011zm94.006 384c10.493 0 19-8.507 19-19s-8.507-19-19-19-19 8.507-19 19 8.507 19 19 19zm-31-405c1.657 0 3-1.343 3-3s-1.343-3-3-3-3 1.343-3 3 1.343 3 3 3zm31 403c9.389 0 17-7.611 17-17s-7.611-17-17-17-17 7.611-17 17 7.611 17 17 17z"/></svg>